<svg width="1920" height="1080" viewBox="0 0 1920 1080" xmlns="http://www.w3.org/2000/svg">
    <defs>
        <!-- Gradients for the pattern -->
        <linearGradient id="bg1" x1="0%" y1="0%" x2="100%" y2="100%">
            <stop offset="0%" style="stop-color:#667eea;stop-opacity:0.1" />
            <stop offset="100%" style="stop-color:#764ba2;stop-opacity:0.1" />
        </linearGradient>
        <linearGradient id="bg2" x1="0%" y1="0%" x2="100%" y2="100%">
            <stop offset="0%" style="stop-color:#2563eb;stop-opacity:0.05" />
            <stop offset="100%" style="stop-color:#0891b2;stop-opacity:0.05" />
        </linearGradient>
        <radialGradient id="circle1" cx="50%" cy="50%" r="50%">
            <stop offset="0%" style="stop-color:#06b6d4;stop-opacity:0.1" />
            <stop offset="100%" style="stop-color:#06b6d4;stop-opacity:0" />
        </radialGradient>
        <radialGradient id="circle2" cx="50%" cy="50%" r="50%">
            <stop offset="0%" style="stop-color:#2563eb;stop-opacity:0.08" />
            <stop offset="100%" style="stop-color:#2563eb;stop-opacity:0" />
        </radialGradient>
    </defs>

    <!-- Background -->
    <rect width="1920" height="1080" fill="url(#bg1)"/>

    <!-- Large geometric shapes -->
    <circle cx="300" cy="200" r="150" fill="url(#circle1)"/>
    <circle cx="1600" cy="800" r="200" fill="url(#circle2)"/>
    <circle cx="1200" cy="300" r="100" fill="url(#circle1)"/>
    <circle cx="400" cy="900" r="180" fill="url(#circle2)"/>

    <!-- Flowing curved lines representing cosmetic textures -->
    <path d="M0 400 Q400 300 800 350 T1600 400 Q1800 450 1920 400 L1920 500 Q1800 550 1600 500 T800 450 Q400 400 0 500 Z"
          fill="url(#bg2)" opacity="0.3"/>

    <path d="M0 600 Q300 500 600 550 T1200 600 Q1500 650 1920 600 L1920 700 Q1500 750 1200 700 T600 650 Q300 600 0 700 Z"
          fill="url(#bg2)" opacity="0.2"/>

    <!-- Small decorative elements representing molecules/drops -->
    <g opacity="0.1">
        <!-- Top area -->
        <circle cx="150" cy="100" r="3" fill="#2563eb"/>
        <circle cx="320" cy="80" r="2" fill="#06b6d4"/>
        <circle cx="280" cy="120" r="1.5" fill="#2563eb"/>
        <circle cx="420" cy="90" r="2.5" fill="#06b6d4"/>

        <!-- Middle area -->
        <circle cx="800" cy="400" r="4" fill="#2563eb"/>
        <circle cx="950" cy="380" r="3" fill="#06b6d4"/>
        <circle cx="1100" cy="420" r="2" fill="#2563eb"/>
        <circle cx="1300" cy="390" r="3.5" fill="#06b6d4"/>

        <!-- Bottom area -->
        <circle cx="600" cy="800" r="2.5" fill="#2563eb"/>
        <circle cx="750" cy="850" r="3" fill="#06b6d4"/>
        <circle cx="900" cy="820" r="2" fill="#2563eb"/>
        <circle cx="1050" cy="880" r="2.5" fill="#06b6d4"/>

        <!-- Right side -->
        <circle cx="1500" cy="200" r="3" fill="#2563eb"/>
        <circle cx="1650" cy="250" r="2" fill="#06b6d4"/>
        <circle cx="1750" cy="180" r="2.5" fill="#2563eb"/>
        <circle cx="1580" cy="320" r="2" fill="#06b6d4"/>

        <!-- Additional scattered elements -->
        <circle cx="200" cy="600" r="1.5" fill="#06b6d4"/>
        <circle cx="1400" cy="600" r="2" fill="#2563eb"/>
        <circle cx="700" cy="200" r="2.5" fill="#06b6d4"/>
        <circle cx="1000" cy="700" r="3" fill="#2563eb"/>
    </g>

    <!-- Subtle grid pattern -->
    <g opacity="0.03" stroke="#2563eb" stroke-width="1" fill="none">
        <defs>
            <pattern id="grid" width="100" height="100" patternUnits="userSpaceOnUse">
                <path d="M 100 0 L 0 0 0 100" fill="none" stroke="#2563eb" stroke-width="1"/>
            </pattern>
        </defs>
        <rect width="1920" height="1080" fill="url(#grid)"/>
    </g>

    <!-- Additional flowing elements for depth -->
    <path d="M-200 800 Q200 700 600 750 T1400 800 Q1700 850 2100 800"
          stroke="url(#bg2)"
          stroke-width="2"
          fill="none"
          opacity="0.15"/>

    <path d="M-200 300 Q300 200 700 250 T1500 300 Q1800 350 2100 300"
          stroke="url(#bg2)"
          stroke-width="1.5"
          fill="none"
          opacity="0.1"/>
</svg>